#!OML:ASF F:\VICON\USERDATA\INSTALL\rory3\rory3.ASF
:FULLY-SPECIFIED
:DEGREES
604
root 3.99763 16.5362 0.351655 9.28051 2.47582 3.63837
lowerback -3.75117 3.75166 0.961847
upperback -0.39154 5.06158 -4.32939
thorax 2.1739 2.56632 -4.71134
lowerneck 1.38678 7.41968 5.605
upperneck 58.4887 8.4767 9.55856
head 27.1827 5.31105 6.70662
rclavicle 5.66039e-014 6.36111e-015
rhumerus -39.8864 -7.05584 -87.7209
rradius 60.7694
rwrist -46.2789
rhand -4.10377 -46.5952
rfingers 7.12502
rthumb 21.6543 -75.4042
lclavicle 5.66039e-014 6.36111e-015
lhumerus -22.4532 -7.08666 84.8373
lradius 44.216
lwrist 75.6945
lhand -41.1786 -15.3327
lfingers 7.12502
lthumb -14.1037 14.1686
rfemur -51.3813 8.97608 8.69008
rtibia 76.6959
rfoot 9.01267 4.96946
rtoes -36.3691
lfemur -28.2311 -4.11945 -32.9252
ltibia 44.8266
lfoot -22.8403 12.6106
ltoes 7.16683
605
root 4.00145 16.5412 0.360099 9.24613 2.45135 3.77471
lowerback -3.80353 3.75647 0.836067
upperback -0.373918 5.0753 -4.36296
thorax 2.21483 2.57278 -4.67063
lowerneck 1.4405 7.40354 5.62048
upperneck 58.4206 8.47517 9.48146
head 27.0599 5.32037 6.62324
rclavicle -3.56818e-014 -1.98785e-015
rhumerus -40.0017 -7.07877 -87.6878
rradius 60.7531
rwrist -46.2193
rhand -4.38972 -46.7765
rfingers 7.12502
rthumb 21.3797 -75.617
lclavicle -3.56818e-014 -1.98785e-015
lhumerus -22.6063 -6.99181 84.7879
lradius 44.177
lwrist 75.531
lhand -40.3806 -15.0799
lfingers 7.12502
lthumb -13.3347 14.4735
rfemur -51.2534 8.99485 8.51842
rtibia 76.659
rfoot 8.95765 5.02278
rtoes -36.3218
lfemur -28.1152 -4.07153 -33.0955
ltibia 44.778
lfoot -22.9263 12.5776
ltoes 7.1071
606
root 4.00212 16.5471 0.362659 9.22423 2.45247 3.83075
lowerback -3.82866 3.74309 0.747091
upperback -0.328423 5.0629 -4.36097
thorax 2.26682 2.56663 -4.61616
lowerneck 1.52048 7.38983 5.75866
upperneck 58.3782 8.48746 9.33661
head 27 5.35103 6.48785
rclavicle 4.33848e-014 -5.56597e-015
rhumerus -40.0363 -7.09353 -87.6765
rradius 60.7877
rwrist -46.0941
rhand -4.84208 -46.5405
rfingers 7.12502
rthumb 20.9451 -75.4296
lclavicle 4.33848e-014 -5.56597e-015
lhumerus -22.6713 -6.8191 84.7245
lradius 44.1283
lwrist 75.5416
lhand -38.7135 -15.8084
lfingers 7.12502
lthumb -11.7274 13.8433
rfemur -51.1816 9.06872 8.44612
rtibia 76.6242
rfoot 8.93753 5.002
rtoes -36.2066
lfemur -28.1045 -4.06832 -33.139
ltibia 44.8002
lfoot -23.0943 12.4221
ltoes 8.0731
607
root 4.00005 16.5465 0.356279 9.22344 2.46947 3.7474
lowerback -3.83269 3.72812 0.773618
upperback -0.250076 5.04293 -4.30387
thorax 2.34522 2.55811 -4.5698
lowerneck 1.28162 7.39966 5.49007
upperneck 58.4394 8.47955 9.48749
head 27.1499 5.28167 6.67871
rclavicle -1.98785e-015 -3.45885e-014
rhumerus -39.9365 -7.03303 -87.6695
rradius 60.6399
rwrist -46.0292
rhand -5.0478 -45.9421
rfingers 7.12502
rthumb 20.7475 -74.8529
lclavicle -1.98785e-015 -3.45885e-014
lhumerus -22.5881 -6.72667 84.6908
lradius 44.1602
lwrist 75.8423
lhand -39.1892 -16.3547
lfingers 7.12502
lthumb -12.1861 13.2704
rfemur -51.2233 9.15002 8.53808
rtibia 76.6157
rfoot 8.97217 5.04524
rtoes -36.1649
lfemur -28.1771 -4.05677 -33.0171
ltibia 44.7956
lfoot -23.1682 12.2716
ltoes 9.06521
608
root 3.9956 16.5394 0.344952 9.26965 2.43852 3.57073
lowerback -3.73886 3.74436 0.883421
upperback -0.296384 5.05539 -4.23968
thorax 2.24951 2.56345 -4.57166
lowerneck 1.22928 7.41152 5.31249
upperneck 58.5139 8.43934 9.70258
head 27.2329 5.23361 6.86782
rclavicle 6.4605e-015 -2.38542e-014
rhumerus -39.9915 -6.95961 -87.6595
rradius 60.5738
rwrist -46.0007
rhand -5.17846 -47.3758
rfingers 7.12502
rthumb 20.6219 -76.3004
lclavicle 6.4605e-015 -2.38542e-014
lhumerus -22.5908 -6.75662 84.6851
lradius 44.2163
lwrist 76.1615
lhand -40.6718 -16.8017
lfingers 7.12502
lthumb -13.6154 12.7331
rfemur -51.4265 9.28704 8.72102
rtibia 76.6435
rfoot 9.08452 5.1091
rtoes -36.3273
lfemur -28.3424 -3.98163 -32.7975
ltibia 44.8162
lfoot -23.0794 12.2265
ltoes 9.02895
609
root 4.00388 16.5495 0.359446 9.24987 2.45281 3.91318
lowerback -3.91903 3.72549 0.570902
upperback -0.274858 5.04898 -4.32349
thorax 2.35273 2.55853 -4.47137
lowerneck 1.52579 7.34777 5.67153
upperneck 58.4247 8.46057 9.28983
head 27.065 5.31277 6.48464
rclavicle 6.09275e-014 -3.57812e-014
rhumerus -40.1894 -6.94065 -87.6145
rradius 60.7454
rwrist -45.8512
rhand -5.50888 -50.3533
rfingers 7.12502
rthumb 20.3044 -79.3119
lclavicle 6.09275e-014 -3.57812e-014
lhumerus -22.6694 -6.75311 84.685
lradius 44.2011
lwrist 76.2543
lhand -40.4909 -16.9322
lfingers 7.12502
lthumb -13.441 12.6141
rfemur -51.2621 9.15776 8.30854
rtibia 76.6399
rfoot 8.87253 5.317
rtoes -36.665
lfemur -28.1412 -4.03283 -33.2013
ltibia 44.7328
lfoot -23.1482 12.1423
ltoes 9.44231
610
root 4.0073 16.5566 0.363319 9.25042 2.47058 4.07031
lowerback -4.02608 3.70904 0.401717
upperback -0.213204 5.0392 -4.34638
thorax 2.46301 2.55333 -4.39179
lowerneck 1.4122 7.35804 5.71208
upperneck 58.4777 8.49275 9.25479
head 27.2232 5.3173 6.49958
rclavicle -8.74653e-015 -2.50469e-014
rhumerus -40.1404 -6.9442 -87.5477
rradius 60.4851
rwrist -45.9615
rhand -5.46781 -49.5242
rfingers 7.12502
rthumb 20.3439 -78.4786
lclavicle -8.74653e-015 -2.50469e-014
lhumerus -22.6083 -6.71675 84.6714
lradius 44.1926
lwrist 76.3356
lhand -39.8626 -16.39
lfingers 7.12502
lthumb -12.8353 13.1954
rfemur -51.2055 9.13017 8.11491
rtibia 76.6528
rfoot 8.74553 5.30122
rtoes -36.7669
lfemur -28.0974 -4.00272 -33.3804
ltibia 44.6993
lfoot -23.1378 12.0159
ltoes 9.90122
